<?xml version="1.0" encoding="iso-8859-1"?>
<!-- Uploaded to: SVG Repo, www.svgrepo.com, Generator: SVG Repo Mixer Tools -->
<!DOCTYPE svg PUBLIC "-//W3C//DTD SVG 1.1//EN" "http://www.w3.org/Graphics/SVG/1.1/DTD/svg11.dtd">
<svg fill="#000000" version="1.1" id="Capa_1" xmlns="http://www.w3.org/2000/svg" xmlns:xlink="http://www.w3.org/1999/xlink" 
	 width="800px" height="800px" viewBox="0 0 533.064 533.064"
	 xml:space="preserve">
<g>
	<path d="M466.217,256.759c54.381-88.898,68.541-172.967,28.245-213.925C456.324,4.088,380.035,11.943,294.646,58.94
		c-25.911-11.168-53.27-14.477-79.917-8.064c-5.454,1.311-10.757,3.015-15.924,5.063C118.354,26.425,48.98,28.054,17.492,67.383
		c-44.566,55.669-1.841,167.007,103.877,270.985c6.768,18.519,15.189,35.964,25.048,51.977
		c-39.528-17.021-65.876-47.165-65.876-81.468c0-5.274-4.282-9.559-9.558-9.559c-5.276,0-9.558,4.284-9.558,9.559
		c0,49.405,43.189,91.633,103.672,107.996c8.545,10.585,17.812,20.269,27.725,28.865c11.273,9.773,22.993,17.814,34.954,24.102
		c-77.474,40.925-147.326,49.088-181.673,14.192c-1.85-1.881-4.879-1.904-6.758-0.057c-1.883,1.854-1.906,4.878-0.056,6.759
		c16.181,16.441,39.451,24.222,67.322,24.222c37.512,0,83.356-14.132,131.453-40.197c17.425,7.598,35.243,11.519,52.88,11.519
		c9.349,0,18.646-1.088,27.807-3.291c2.567-0.616,4.149-3.196,3.528-5.764c-0.616-2.566-3.196-4.153-5.764-3.528
		c-22.104,5.325-45.158,3.533-67.735-4.905c10.421-5.992,20.934-12.554,31.468-19.62c-0.989,2.292-0.089,4.989,2.18,6.142
		c56.452,28.675,109.116,43.171,151.483,43.171c36.235,0,64.947-10.604,82.075-31.993
		C551.876,421.671,529.274,339.577,466.217,256.759z M487.649,49.541c37,37.607,23.363,115.618-27.499,199.382
		c-14.178-17.908-30.256-35.778-47.991-53.279c-22.257-60.747-61.745-107.936-106.671-131.486
		C383.974,22.761,454,15.35,487.649,49.541z M395.33,179.608c-11.052-10.146-22.631-20.125-34.774-29.851
		c-30.901-24.74-62.633-45.742-93.853-62.772c9.63-6.249,19.197-12.027,28.672-17.324
		C335.666,88.581,372.054,127.906,395.33,179.608z M216.965,60.168c22.304-5.367,45.158-3.342,67.138,4.751
		c-8.951,5.223-17.984,10.842-27.081,16.89c-14.958-7.789-29.748-14.599-44.258-20.475
		C214.165,60.938,215.551,60.513,216.965,60.168z M24.957,73.362c28.047-35.036,89.473-37.104,162.083-11.953
		c-29.048,15.35-52.504,42.863-67.49,79.952c-19.28,47.711-22.281,105.621-8.455,163.044c1.099,4.578,2.336,9.097,3.626,13.577
		C23.848,222.946-13.922,121.923,24.957,73.362z M199.088,438.514c-6.406-5.549-12.508-11.606-18.334-18.047
		c12.781,2.398,26.175,3.678,39.978,3.678c87.841,0,159.303-51.702,159.303-115.264c0-0.14-0.032-0.274-0.041-0.415
		c0.531-12.214-3.837-26.173-13.017-40.893c-13.143-21.072-34.934-41.817-61.354-58.414c-0.994-0.621-2.003-1.162-2.997-1.769
		c-7.836-26.523-20.848-43.609-35.883-43.609c-9.39,0-17.989,6.688-25.041,18.15c-9.467-2.128-18.624-3.36-27.118-3.36
		c-21.41,0-37.099,6.963-45.378,20.138c-17.758,28.269,7.395,75.509,57.667,111.054c6.771,35.866,21.872,60.331,39.866,60.331
		c11.581,0,21.946-10.202,29.689-26.98c11.388,2.978,22.351,4.546,32.432,4.546c8.2,0,15.541-1.041,21.968-3.038
		c-20.727,35.357-71.215,60.405-130.102,60.405c-21.191,0-41.283-3.257-59.31-9.054c-18.561-27.022-32.665-59.02-41.038-93.794
		c-13.362-55.511-10.515-111.348,8.025-157.229c15.493-38.345,40.422-65.745,71.213-78.944
		c15.819,6.053,32.082,13.343,48.594,21.814c-11.934,8.27-23.938,17.198-35.944,26.845c-2.061,1.652-2.385,4.663-0.73,6.72
		c1.647,2.054,4.663,2.385,6.718,0.733c13.187-10.604,26.414-20.344,39.572-29.244c32.044,17.235,64.807,38.788,96.753,64.363
		c17.618,14.109,34.075,28.731,49.331,43.614c3.552,9.932,6.637,20.231,9.194,30.858c0.616,2.567,3.206,4.154,5.764,3.528
		c2.567-0.616,4.149-3.197,3.524-5.764c-1.106-4.606-2.348-9.143-3.646-13.633c13.161,13.74,25.239,27.634,36.16,41.509
		c-23.228,36.627-53.368,74.113-89.453,109.621c-41.416,40.753-85.324,73.692-127.372,97.28
		C224.736,457.962,211.633,449.393,199.088,438.514z M247.997,300.887c-5.02-3.155-9.682-6.427-14.15-9.745
		c-0.789-7.635-1.258-15.69-1.258-24.203c0-26.332,4.123-48.78,10.169-65.129c16.995,4.537,35.372,12.648,52.696,23.536
		c0.653,0.411,1.265,0.849,1.913,1.265c2.208,11.976,3.533,25.52,3.533,40.329c0,21.44-2.739,40.31-7.015,55.426
		C278.853,317.613,263.041,310.337,247.997,300.887z M287.295,340.384c-6.104,12.825-13.502,20.148-20.552,20.148
		c-10.552,0-21.853-16.461-28.45-43.189C254.439,327.442,271.162,335.213,287.295,340.384z M223.595,283.059
		c-33.507-28.376-47.424-59.492-38.2-74.179c6.116-9.74,20.914-11.192,29.19-11.192c5.859,0,12.188,0.677,18.806,1.96
		c-6.476,17.949-10.366,41.332-10.366,67.29C223.025,272.445,223.254,277.799,223.595,283.059z M251.361,184.41
		c4.884-7.122,10.226-11.07,15.382-11.07c8.217,0,16.902,9.979,23.464,26.999C277.187,193.455,264.063,188.093,251.361,184.41z
		 M308.246,234.082c18.16,13.259,33.024,28.39,42.518,43.604c10.197,16.354,12.857,30.812,7.295,39.661
		c-6.114,9.74-20.913,11.191-29.188,11.191c-7.873,0-16.619-1.288-25.771-3.565c4.667-16.434,7.365-36.356,7.365-58.045
		C310.458,255.387,309.665,244.373,308.246,234.082z M508.534,460.51c-34.205,42.718-121.251,37.332-221.774-13.726
		c-0.733-0.378-1.513-0.472-2.287-0.448c29.562-20.228,59.239-44.565,87.689-72.563c35.629-35.06,65.545-72.135,88.819-108.599
		C520.015,343.24,541.474,419.36,508.534,460.51z"/>
</g>
</svg>